@startuml class 

package src {


  package services {
    interface DecodedUser{
      +id : string
    }

    class AuthService{
      +hashPassword(password: string, salt: any = 10): Promise<string>
      +comparePasswords(password: string, hashedPassword: string): Promise<boolean>
      +generateToken(payload: any): string
      +decodeToken(token: string): DecodedUser
    }
      
    interface BeachForecast extends BeachModel, IForecastPoint{
      +rating : number
    }

    interface TimeForecast{
      +time : string
      +forecast : BeachForecast[]
    }

    class ForecastProcessingInternalError extends InternalError{

    }

    class Forecast{
      +processForecastForBeaches(beaches: Beach[], orderBy: 'asc' | 'desc' = 'desc', orderField: any = 'rating'): Promise<TimeForecast[]>
      -calculateRating(beaches: Beach[]): Promise<BeachForecast[]>
      -mapForecastByTime(forecast: BeachForecast[]): TimeForecast[]
      -enrichBeachData(points: ForecastPoint[], beach: Beach, rating: Rating): BeachForecast[]
    }

    Forecast --* StormGlass
    Forecast --* Rating

    class Rating{
      +getRateForPoint(point: ForecastPoint): number
      +getRatingBasedOnWindAndWavePositions(waveDirection: GeoPosition, windDirection: GeoPosition): number
      -isWindOffShore(waveDirection: string, windDirection: string): boolean
      +getRatingForSwellPeriod(period: number): number
      +getRatingForSwellSize(height: number): number
      +getPositionFromLocation(coordinates: number): GeoPosition
    }

    Rating --* BeachModel
    Rating --* GeoPosition

  }

  package utils {
    class CacheUtil{
      +set(key: string, value: T, ttl: any = 3600): boolean
      +get(key: string): T | undefined
      +clearAllCache(): void
    }

    interface RequestConfig extends AxiosRequestConfig{

    }

    class AxiosRequestConfig{

    }

    interface Response extends AxiosResponse{

    }

    class AxiosResponse{

    }

    class Request{
      +get(url: string, config: RequestConfig = {}): Promise<Response<T>>
      +isRequestError(error: AxiosError): boolean
    }

    Request --> RequestConfig
    Request --> Response

    class TimeUtil{
      +getUnixTimeForAFutureDay(days: number): number
    }

    package Errors {

      interface IAPIError{
        +message : string
        +code : number
        +codeAsString : string
        +description : string
        +documentation : string
      }

      interface IAPIErrorResponse extends IAPIError{
        +error : string
      }

      class ApiError{
        +format(error: APIError): IAPIErrorResponse
      }

      IAPIErrorResponse --> ApiError

      class InternalError {

      }

      class Error extends InternalError{

      }
    }
  }

  package client {
    interface StormGlassPointSource{
      [key: string]: number
    }

    interface IStormGlassPoint{
      +time : string
      +waveHeight : StormGlassPointSource
      +waveDirection : StormGlassPointSource
      +swellDirection : StormGlassPointSource
      +swellHeight : StormGlassPointSource
      +swellPeriod : StormGlassPointSource
      +windDirection : StormGlassPointSource
      +windSpeed : StormGlassPointSource
    }

    interface StormGlassForecastResponse{
      +hours : IStormGlassPoint[]
    }

    interface IForecastPoint{
      +time : string
      +waveHeight : number
      +waveDirection : number
      +swellDirection : number
      +swellHeight : number
      +swellPeriod : number
      +windDirection : number
      +windSpeed : number
    }

    class StormGlassUnexpectedResponseError extends InternalError{

    }

    class ClientRequestError extends InternalError{

    }

    class StormGlassResponseError extends InternalError{

    }

    class StormGlass{
      +stormGlassAPIParams : any
      +stormGlassAPISource : any
      +fetchPoints(lat: number, lng: number): Promise<ForecastPoint[]>
      #getForecastPointsFromApi(lat: number, lng: number): Promise<ForecastPoint[]>
      #getForecastPointsFromCache(key: string): ForecastPoint[] | undefined
      -getCacheKey(lat: number, lng: number): string
      -setForecastPointsInCache(key: string, forecastPoints: ForecastPoint[]): boolean
      -normalizeResponse(points: StormGlassForecastResponse): ForecastPoint[]
      -isValidPoint(point: Partial<IStormGlassPoint>): boolean
    }

    IStormGlassPoint --> StormGlassPointSource
    StormGlass <-- IForecastPoint
    StormGlass <-- IStormGlassPoint
    StormGlass <-- StormGlassForecastResponse
    IStormGlassPoint <-- StormGlassForecastResponse
  }

  package controllers {
    class BeachesController{
      +create(req: Request, res: Response): Promise<void>
    }

    class BaseController{

    }

    BaseController <|-- BeachesController

    class ForecastController{
      +getForecastForgeLoggedUser(req: Request, res: Response): Promise<void>
    }

    class BaseController{

    }

    BaseController <|-- ForecastController

    class BaseController{
      #sendCreateUpdateErrorResponse(res: Response, error: mongoose.Error.ValidationError | Error): void
      -handleClientErrors(error: mongoose.Error.ValidationError): TypeLiteral
      #sendErrorResponse(res: Response, apiError: APIError): Response
    }

    class UsersController{
      +create(req: Request, res: Response): Promise<void>
      +authenticate(req: Request, res: Response): Promise<Response>
      +me(req: Request, res: Response): Promise<Response>
    }

    class BaseController{

    }

    BaseController <|-- UsersController

  }

  package middlewares {
    interface HTTPError extends IAPIError{
      +status : number
      +function apiErrorValidator()
    }
  }

  package models "fala com o banco" {
    enum GeoPosition {
      S = 'S',
      E = 'E',
      W = 'W',
      N = 'N',
    }

    interface Beach{
      +_id : string
      +name : string
      +position : GeoPosition
      +lat : number
      +lng : number
      +userId : string
    }

    interface BeachModel extends Beach {

    }

    BeachModel ..> BeachesController
    Beach --> GeoPosition

    interface User{
      +_id : string
      +name : string
      +email : string
      +password : string
    }

    enum CUSTOM_VALIDATION {
      DUPLICATED = 'DUPLICATED',
    }

    interface UserModel extends User{

    }

    UserModel ..> UsersController
  }

  package server {
    class SetupServer extends Server{
      -server : Server
      +init(): Promise<void>
      -setupExpress(): void
      -docsSetup(): Promise<void>
      -setupControllers(): void
      -setupErrorHandlers(): void
      +getApp(): Application
      -databaseSetup(): Promise<void>
      +close(): Promise<void>
      +start(): void
    }

    SetupServer --> HTTPError
    SetupServer --* ForecastController
    SetupServer --* BeachesController
    SetupServer --* UsersController
  }

  package types {
    interface Request{
      +decoded : DecodedUser
    }

    class IncomingMessage{

    }

    class Request{

    }

    Request --> DecodedUser
    IncomingMessage <|-- Request
  }

  
}

@enduml